<svg width="256" height="307" viewBox="0 0 256 307" fill="none" xmlns="http://www.w3.org/2000/svg">
<g clip-path="url(#clip0_105_379)">
<path d="M37.9499 0.939941H38.3018C41.5651 0.939941 44.4045 3.15954 45.1963 6.33268L67.2475 63.4413C70.3268 75.7813 81.4843 84.6436 94.5694 84.6436H125.355C138.44 84.6436 149.597 75.7813 152.677 63.4413L175.104 6.30864C175.904 3.15153 178.743 0.939941 181.998 0.939941C186.621 0.939941 190.012 5.29099 188.901 9.77827L153.069 123.579C149.989 136.303 138.448 145.166 125.747 145.166H94.5774C81.4923 145.166 70.3348 136.295 67.2554 123.579L31.0474 9.79429C29.9197 5.29901 33.3189 0.939941 37.9419 0.939941H37.9499Z" fill="#ff8b4d"/>
<path d="M202.642 147.69C220.068 147.69 234.195 133.537 234.195 116.079C234.195 98.6201 220.068 84.4673 202.642 84.4673C185.215 84.4673 171.089 98.6201 171.089 116.079C171.089 133.537 185.215 147.69 202.642 147.69Z" fill="#ff8b4d"/>
<path d="M36.2782 201.209L3.02954 169.285C0.997986 167.338 0.358127 164.341 1.3979 161.721C2.44567 159.1 4.96512 157.385 7.7725 157.385H224.453C229.516 157.385 233.619 161.512 233.619 166.6C233.619 171.689 229.516 175.815 224.453 175.815H95.6412C92.8338 175.815 90.3064 177.538 89.2666 180.15C88.2188 182.771 88.8667 185.767 90.8982 187.715L93.7296 190.431C102.256 198.62 113.597 203.188 125.387 203.188H188.965C191.772 203.188 194.3 204.903 195.347 207.531C196.395 210.151 195.747 213.148 193.716 215.103C192.668 216.113 192.332 217.659 192.876 219.013C193.412 220.368 194.715 221.257 196.163 221.257H249.056C251.863 221.257 254.39 222.972 255.43 225.592C256.47 228.212 255.83 231.209 253.798 233.156L205.689 294.183C197.163 302.372 185.821 306.94 174.032 306.94H137.736C134.929 306.94 132.401 305.217 131.361 302.597C130.314 299.977 130.961 296.98 132.993 295.033L172.008 245.745C173.056 244.743 173.384 243.205 172.848 241.858C172.312 240.512 171.017 239.631 169.569 239.631C168.665 239.631 167.785 239.983 167.13 240.608L123.635 294.183C115.109 302.364 103.775 306.932 91.986 306.932H58.8173C56.0099 306.932 53.4825 305.209 52.4427 302.589C51.3949 299.969 52.0428 296.972 54.0743 295.025L113.765 225.913C115.797 223.965 116.445 220.961 115.397 218.34C114.349 215.72 111.822 213.997 109.014 213.997H67.9353C56.1379 213.989 44.8044 209.406 36.2862 201.201L36.2782 201.209Z" fill="#ff8b4d"/>
</g>
<defs>
<clipPath id="clip0_105_379">
<rect width="255" height="306" fill="white" transform="translate(0.910034 0.939941)"/>
</clipPath>
</defs>
</svg>
